<?xml version="1.0" standalone="no"?>
<!DOCTYPE svg PUBLIC "-//W3C//DTD SVG 20010904//EN"
 "http://www.w3.org/TR/2001/REC-SVG-20010904/DTD/svg10.dtd">
<svg version="1.0" xmlns="http://www.w3.org/2000/svg"
 width="176.000000pt" height="176.000000pt" viewBox="0 0 176.000000 176.000000"
 preserveAspectRatio="xMidYMid meet">
<metadata>
Created by potrace 1.14, written by Peter Selinger 2001-2017
</metadata>
<g transform="translate(0.000000,176.000000) scale(0.100000,-0.100000)"
fill="#000000" stroke="none">
<path d="M665 1728 c-32 -11 -65 -36 -65 -49 0 -13 172 -180 201 -194 43 -23
103 -28 145 -15 45 15 235 195 228 215 -8 21 -85 50 -130 49 -46 -2 -131 -44
-141 -70 -5 -12 -11 -11 -32 9 -57 53 -146 77 -206 55z"/>
<path d="M438 1579 c-41 -11 -381 -215 -409 -245 l-24 -26 0 -411 c0 -369 2
-415 17 -443 13 -24 90 -75 347 -228 182 -108 345 -202 362 -208 36 -12 96 -6
136 14 106 54 331 185 352 204 25 24 26 27 29 182 3 138 1 163 -16 202 -25 59
-72 103 -157 150 -39 20 -94 51 -124 68 -48 27 -57 29 -75 17 -12 -8 -48 -29
-82 -47 -147 -81 -254 -144 -254 -150 0 -6 202 -126 261 -156 14 -7 32 -24 39
-37 7 -13 16 -23 19 -20 4 2 8 -8 9 -21 1 -14 6 -34 12 -44 6 -10 6 -21 2 -24
-10 -6 -404 203 -449 238 -66 53 -67 61 -69 364 -2 228 0 272 12 268 7 -3 89
-49 181 -103 220 -127 230 -132 306 -138 62 -5 69 -4 149 38 89 46 130 69 138
77 3 3 28 17 55 31 28 14 84 44 125 67 l75 41 2 -127 c1 -70 2 -204 2 -298 l1
-170 170 -101 c93 -56 171 -98 173 -95 2 4 3 201 3 438 -1 344 -4 434 -14 447
-17 20 -338 222 -376 237 -51 19 -145 3 -129 -23 3 -6 1 -7 -5 -3 -10 6 -167
-75 -182 -93 -3 -3 -12 -7 -20 -9 -8 -2 -36 -17 -63 -33 -78 -48 -99 -43 -283
64 -179 105 -207 117 -246 106z"/>
</g>
</svg>
