<svg xmlns="http://www.w3.org/2000/svg" viewBox="0 0 43.96 222.28"><defs><style>.cls-1{fill:none;stroke:#fff;stroke-miterlimit:10;}</style></defs><g id="圖層_2" data-name="圖層 2"><g id="圖層_1-2" data-name="圖層 1"><path class="cls-1" d="M31.22,180.08c6.72,3.24,12.24,9,12.24,19.62,0,11.82-9.6,22.08-21.48,22.08S.5,211,.5,199.16c0-6.48,1.68-10.38,5-15.48l6.84,1.8v.42c-7,4.38-12.12,11.52-10.44,19.38,2.22,10.26,14.34,14,25,10.74S43,204.14,41.36,193.58c-.78-5.4-4.32-10-10.32-13.08Z"/><path class="cls-1" d="M43.1,144.92V151H28.52c6.78.78,14.94,2.82,14.94,10.62,0,5.52-3.48,9.9-10.56,9.9h-14c-2.1,0-2.7.18-2.88,1.32h-.42l-1.32-5.64v-.42H33.8c5.22,0,9.54-2.7,8.58-7.86-1.32-6.72-13.86-7.92-18.9-7.92H18.86c-2.1,0-2.7.18-2.88,1.32h-.42l-1.32-5.64v-.42h24.9c2.1,0,3-.42,3.54-1.38Z"/><path class="cls-1" d="M18.08,116.54l5.52,1.2v.3c-5.1,1.86-8.82,5.7-8.82,9.12,0,4.08,2.28,6.36,4.74,6.66,8,.84,5.88-19.38,15.66-18.72,4.74.36,8.28,4.8,8.28,11.52a18.73,18.73,0,0,1-4,11.7l-6-1.26v-.3c4.2-2,9.18-6.54,9.18-11.88,0-4.32-2.22-7.56-4.8-7.92-7.86-1.14-4.38,19.8-16.14,18.36-3.9-.48-7.44-2.64-7.44-9.18C14.24,123,16.22,118.94,18.08,116.54Z"/><path class="cls-1" d="M32.6,86.9c5.64,1.14,10.86,3.66,10.86,10,0,5.34-3.48,8.64-10.56,8.64H14.72V109h-.48c0-5.1-5.34-5.52-8.22-5.52V98.78c4.62,0,8,4.56,8.22,8.16V93.68h.48v7.08H33.8c5.22,0,9.24-1.44,8.58-6.54-.54-4-5.28-5.94-9.9-7Z"/><path class="cls-1" d="M27.56,53.24c9.6,0,15.9,8.22,15.9,16.26s-4.92,15-13.32,15c-9.9,0-15.9-8.22-15.9-16.26S19.28,53.24,27.56,53.24Zm-1.92,5c-7.2,2.1-12.3,7.74-10.32,14.58s9.48,8.7,16.74,6.6,12.36-7.74,10.32-14.58S32.9,56.18,25.64,58.28Z"/><path class="cls-1" d="M42.68.5h.42V7.88h-.42c-.54-.9-1.56-1.2-3.54-1S27,7.94,23.9,8.24c-4.5.48-9.6,2.22-8.58,6.9,1.2,5.52,10.5,6.24,16.8,6.3h7c2.1,0,3-.42,3.54-1.32h.42V27.5h-.42c-.54-.9-1.44-1.32-3.54-1.32H23.9c-4.56,0-9.48,2.1-8.58,6.78,1.26,6.72,13.8,7,18.9,7h4.92c2.1,0,3-.48,3.54-1.38h.42V46h-.42c-.54-.9-1.44-1.38-3.54-1.38H18.86c-2.1,0-2.7.18-2.88,1.38h-.42L14.24,40.4V40H27.56c-6.36-.66-13.32-2.46-13.32-9.66,0-4.62,4-8.58,10.56-8.82l.66-.06c-5.82-.72-11.22-2.94-11.22-9,0-4.74,3.54-8.1,10.56-8.82C30.62,3,36.92,2.42,39.14,2.18S42.14,1.4,42.68.5Z"/></g></g></svg>