<svg xmlns="http://www.w3.org/2000/svg" viewBox="0 0 57.76 194.67"><defs><style>.cls-1{fill:none;stroke:#fff;stroke-miterlimit:10;}</style></defs><g id="圖層_2" data-name="圖層 2"><g id="圖層_1-2" data-name="圖層 1"><path class="cls-1" d="M.5,159.43H1C2,161.35,5.12,162,7.7,162H28.4c8.34,0,14.46,5.94,14.46,14.4,0,8.94-5,16.44-15.9,16.44H4.52c-2.16,0-3,.42-3.54,1.38H.5v-7.44H1c.54.9,1.38,1.32,3.54,1.32H27c9.9,0,15.9-5.1,15.18-13.8-.6-7.38-7-11.88-13.74-11.88h-20c-3.3,0-7,1.56-7.38,4.5H.5Z"/><path class="cls-1" d="M42.08,122.59h.42V130h-.42c-.54-1-1.56-1.2-3.54-1s-12.12,1.08-15.24,1.38c-4.5.42-9.6,2.64-8.58,7.8,1.32,6.72,13.86,8,18.9,8h4.92c2.1,0,3-.42,3.54-1.38h.42v7.44h-.42c-.54-.9-1.44-1.32-3.54-1.32H18.26c-2.1,0-2.7.18-2.88,1.32H15l-1.32-5.64v-.42H28.52c-6.72-.78-14.88-2.82-14.88-10.62,0-4.92,3.36-9.12,10.56-9.84,5.82-.6,12.12-1.2,14.34-1.44S41.54,123.49,42.08,122.59Z"/><path class="cls-1" d="M6,115.87a2.82,2.82,0,1,1,2.82-2.82A2.82,2.82,0,0,1,6,115.87Zm36.12-6.72h.42v7.44h-.42c-.54-.9-1.44-1.32-3.54-1.32H18.26c-2.1,0-2.7.18-2.88,1.32H15L13.64,111v-.42h24.9C40.64,110.53,41.54,110.11,42.08,109.15Z"/><path class="cls-1" d="M55.52,72.13h.42l1.32,5.64v.48H26.42c7,1.08,16.44,4.14,16.44,12.54,0,4.92-4.2,10.92-11.88,11.1-14.82.42-17.34-13.38-17.34-20.1,0-3.12,1.32-5.46,1.26-6.66-.06-.84-.84-1.14-1.26-1.26v-.36h39C54.74,73.51,55.34,73.33,55.52,72.13Zm-41,6.12a13.22,13.22,0,0,0-.54,3.6c.12,5.76,2.64,16.26,17.94,15.42,5.22-.3,10.86-4,9.9-9.12-1.32-6.78-13.86-9.9-18.9-9.9Z"/><path class="cls-1" d="M42.5,37v6.12H27.92c6.78.78,14.94,2.82,14.94,10.62,0,5.52-3.48,9.9-10.56,9.9h-14c-2.1,0-2.7.18-2.88,1.32H15l-1.32-5.64v-.42H33.2c5.22,0,9.54-2.7,8.58-7.86-1.32-6.72-13.86-7.92-18.9-7.92H18.26c-2.1,0-2.7.18-2.88,1.32H15l-1.32-5.64v-.42h24.9c2.1,0,3-.42,3.54-1.38Z"/><path class="cls-1" d="M33,.55c4.26.36,9.9,4.14,9.9,12.66,0,8.28-4.08,16.26-14,16.5C18.5,30,14,20.59,13.64,14c-.24-5.1,2.22-12.12,9.48-13V6.61C24,3.19,27.5.07,33,.55ZM22.64,24.49V5.35a9.59,9.59,0,0,0-8.28,11.34C15.14,20.77,18.56,23.41,22.64,24.49Zm.48-15.42V24.61a17.33,17.33,0,0,0,9.6-.42C39,22,41.78,17.47,41.54,11.35c-.24-5.16-3.78-9.66-8.46-10.26C26.84.37,23.12,4.51,23.12,9.07Z"/></g></g></svg>