<svg xmlns="http://www.w3.org/2000/svg" viewBox="0 0 114.15 112.01"><defs><style>.cls-1{fill:none;stroke:#b91c22;stroke-miterlimit:10;}</style></defs><g id="圖層_2" data-name="圖層 2"><g id="圖層_1-2" data-name="圖層 1"><path class="cls-1" d="M66.07,14.47l.18-.17L76.48,4.07a11.91,11.91,0,0,0-16.83,0l-2,2L55.59,4A11.91,11.91,0,0,0,38.76,4L49.25,14.47A12.1,12.1,0,0,0,66.07,14.47Z"/><path class="cls-1" d="M111.07,25.08,96.24,15.92c-3.16-2-7.72-5.81-11.7-5.46-2.54.22-4.93,1.86-7.12,3.06l-15.11,8.3a8.91,8.91,0,0,1-10.86-.21l-17-10s-4.26-2.77-8.31,0L4.31,24.51h0A9.39,9.39,0,0,0,.5,30.07V74.13C.71,84.56,4.12,85.62,4.12,85.62L43.5,109c5.11,4,11.28,1.91,11.28,1.91l1.49-.92L77,98.64c2.76-1.49,3.83-5.11,3.83-5.11L81,77.36A16.22,16.22,0,0,0,73.14,64.8l-14.9-8.3L34.83,69.91l17.24,10a9.82,9.82,0,0,1,4,4.3,17.63,17.63,0,0,1,1.38,6L32,76.68C22.85,72,23.7,65,23.7,65V32.41L48.05,46.52s8.73,4.89,16,.63l27.06-15,.27,38.41.13.14L113.65,84V28.78A4.8,4.8,0,0,0,111.07,25.08Z"/></g></g></svg>